<svg xmlns="http://www.w3.org/2000/svg" viewBox="0 0 1600 1000" preserveAspectRatio="xMidYMid slice"><rect width="1600" height="1000" fill="#0A0A0B"/><rect x="180" y="210" width="230" height="70" fill="#33333A"/><path d="M370 280 V318 H395" fill="none" stroke="#B8B4AB" stroke-width="2" stroke-opacity=".6"/><rect x="285" y="335" width="230" height="70" fill="#33333A"/><path d="M475 405 V443 H500" fill="none" stroke="#B8B4AB" stroke-width="2" stroke-opacity=".6"/><rect x="390" y="460" width="230" height="70" fill="#33333A"/><path d="M580 530 V568 H605" fill="none" stroke="#B8B4AB" stroke-width="2" stroke-opacity=".6"/><rect x="495" y="585" width="230" height="70" fill="#33333A"/><path d="M685 655 V693 H710" fill="none" stroke="#B8B4AB" stroke-width="2" stroke-opacity=".6"/><rect x="600" y="710" width="230" height="70" fill="#D96A2C"/><line x1="830" y1="120" x2="830" y2="880" stroke="#EDEAE4" stroke-opacity=".12" stroke-width="2" stroke-dasharray="4 10"/><circle cx="1010" cy="500" r="150" fill="none" stroke="#EDEAE4" stroke-opacity="0.35" stroke-width="5" stroke-dasharray="860 82" transform="rotate(-70 1010 500)"/><circle cx="980.5" cy="352.9" r="10" fill="#EDEAE4" fill-opacity="0.35"/><circle cx="1170" cy="500" r="150" fill="none" stroke="#EDEAE4" stroke-opacity="0.6" stroke-width="5" stroke-dasharray="860 82" transform="rotate(-70 1170 500)"/><circle cx="1140.5" cy="352.9" r="10" fill="#EDEAE4" fill-opacity="0.6"/><circle cx="1330" cy="500" r="150" fill="none" stroke="#D96A2C" stroke-opacity="1" stroke-width="5" stroke-dasharray="860 82" transform="rotate(-70 1330 500)"/><circle cx="1300.5" cy="352.9" r="10" fill="#D96A2C" fill-opacity="1"/></svg>