<svg xmlns="http://www.w3.org/2000/svg" viewBox="0 0 1600 1000" preserveAspectRatio="xMidYMid slice"><rect width="1600" height="1000" fill="#131316"/><rect x="150" y="230" width="560" height="770" fill="#EDEAE4"/><rect x="890" y="300" width="560" height="700" fill="#D96A2C"/><line x1="710" y1="300" x2="790" y2="300" stroke="#B8B4AB" stroke-width="4" stroke-dasharray="14 10"/><circle cx="806.0" cy="319.4" r="6.0" fill="#EDEAE4" fill-opacity="0.9"/><circle cx="796.5" cy="342.1" r="5.9" fill="#EDEAE4" fill-opacity="0.9"/><circle cx="809.2" cy="354.1" r="5.8" fill="#EDEAE4" fill-opacity="0.9"/><circle cx="801.3" cy="367.2" r="5.6" fill="#EDEAE4" fill-opacity="0.8"/><circle cx="832.2" cy="389.6" r="5.5" fill="#EDEAE4" fill-opacity="0.8"/><circle cx="777.9" cy="400.1" r="5.4" fill="#EDEAE4" fill-opacity="0.8"/><circle cx="835.6" cy="417.1" r="5.3" fill="#EDEAE4" fill-opacity="0.8"/><circle cx="746.2" cy="441.3" r="5.2" fill="#EDEAE4" fill-opacity="0.7"/><circle cx="855.8" cy="461.8" r="5.0" fill="#EDEAE4" fill-opacity="0.7"/><circle cx="814.2" cy="474.8" r="4.9" fill="#EDEAE4" fill-opacity="0.7"/><circle cx="739.4" cy="485.9" r="4.8" fill="#EDEAE4" fill-opacity="0.7"/><circle cx="743.8" cy="507.3" r="4.7" fill="#EDEAE4" fill-opacity="0.7"/><circle cx="766.5" cy="520.3" r="4.6" fill="#EDEAE4" fill-opacity="0.6"/><circle cx="795.2" cy="535.4" r="4.4" fill="#EDEAE4" fill-opacity="0.6"/><circle cx="846.2" cy="557.3" r="4.3" fill="#EDEAE4" fill-opacity="0.6"/><circle cx="819.3" cy="575.2" r="4.2" fill="#EDEAE4" fill-opacity="0.6"/><circle cx="822.7" cy="592.0" r="4.1" fill="#EDEAE4" fill-opacity="0.5"/><circle cx="768.4" cy="608.5" r="4.0" fill="#EDEAE4" fill-opacity="0.5"/><circle cx="871.9" cy="632.0" r="3.8" fill="#EDEAE4" fill-opacity="0.5"/><circle cx="830.7" cy="647.1" r="3.7" fill="#EDEAE4" fill-opacity="0.5"/><circle cx="759.4" cy="657.8" r="3.6" fill="#EDEAE4" fill-opacity="0.5"/><circle cx="734.5" cy="674.5" r="3.5" fill="#EDEAE4" fill-opacity="0.4"/><circle cx="784.6" cy="697.2" r="3.4" fill="#EDEAE4" fill-opacity="0.4"/><circle cx="782.1" cy="715.2" r="3.2" fill="#EDEAE4" fill-opacity="0.4"/><circle cx="855.6" cy="733.5" r="3.1" fill="#EDEAE4" fill-opacity="0.4"/><circle cx="752.8" cy="739.0" r="3.0" fill="#EDEAE4" fill-opacity="0.4"/><circle cx="795.0" cy="766.9" r="2.9" fill="#EDEAE4" fill-opacity="0.3"/><circle cx="782.8" cy="784.8" r="2.8" fill="#EDEAE4" fill-opacity="0.3"/><circle cx="822.0" cy="790.9" r="2.6" fill="#EDEAE4" fill-opacity="0.3"/><circle cx="760.3" cy="816.3" r="2.5" fill="#EDEAE4" fill-opacity="0.3"/><circle cx="770.7" cy="825.0" r="2.4" fill="#EDEAE4" fill-opacity="0.2"/><circle cx="845.8" cy="852.6" r="2.3" fill="#EDEAE4" fill-opacity="0.2"/><circle cx="754.3" cy="859.4" r="2.2" fill="#EDEAE4" fill-opacity="0.2"/><circle cx="719.7" cy="876.2" r="2.0" fill="#EDEAE4" fill-opacity="0.2"/><circle cx="740.4" cy="901.6" r="1.9" fill="#EDEAE4" fill-opacity="0.2"/><circle cx="790.1" cy="915.7" r="1.8" fill="#EDEAE4" fill-opacity="0.1"/><circle cx="844.1" cy="928.3" r="1.7" fill="#EDEAE4" fill-opacity="0.1"/><circle cx="827.7" cy="944.6" r="1.6" fill="#EDEAE4" fill-opacity="0.1"/><circle cx="784.5" cy="961.4" r="1.4" fill="#EDEAE4" fill-opacity="0.1"/><circle cx="754.5" cy="979.6" r="1.3" fill="#EDEAE4" fill-opacity="0.1"/><rect x="200" y="290" width="380" height="12" fill="#0A0A0B" fill-opacity=".18"/><rect x="200" y="336" width="300" height="12" fill="#0A0A0B" fill-opacity=".18"/><rect x="200" y="382" width="420" height="12" fill="#0A0A0B" fill-opacity=".18"/><rect x="200" y="428" width="260" height="12" fill="#0A0A0B" fill-opacity=".18"/><rect x="200" y="474" width="340" height="12" fill="#0A0A0B" fill-opacity=".18"/><rect x="200" y="520" width="200" height="12" fill="#0A0A0B" fill-opacity=".18"/><rect x="940" y="360" width="460" height="60" fill="#0A0A0B" fill-opacity=".14"/><rect x="940" y="450" width="460" height="60" fill="#0A0A0B" fill-opacity=".14"/><rect x="940" y="540" width="460" height="60" fill="#0A0A0B" fill-opacity=".14"/><rect x="940" y="630" width="460" height="60" fill="#0A0A0B" fill-opacity=".14"/></svg>