<svg xmlns="http://www.w3.org/2000/svg" viewBox="0 0 1600 1000" preserveAspectRatio="xMidYMid slice"><rect width="1600" height="1000" fill="#191A1E"/><line x1="0" y1="880" x2="1600" y2="880" stroke="#EDEAE4" stroke-opacity=".12" stroke-width="2"/><circle cx="150.0" cy="880.0" r="2.0" fill="#EDEAE4" fill-opacity="0.2"/><circle cx="171.7" cy="879.3" r="2.0" fill="#EDEAE4" fill-opacity="0.3"/><circle cx="193.3" cy="878.3" r="2.1" fill="#EDEAE4" fill-opacity="0.3"/><circle cx="214.7" cy="877.1" r="2.1" fill="#EDEAE4" fill-opacity="0.3"/><circle cx="236.0" cy="875.6" r="2.2" fill="#EDEAE4" fill-opacity="0.3"/><circle cx="257.3" cy="873.9" r="2.2" fill="#EDEAE4" fill-opacity="0.3"/><circle cx="278.4" cy="871.9" r="2.3" fill="#EDEAE4" fill-opacity="0.3"/><circle cx="299.4" cy="869.7" r="2.3" fill="#EDEAE4" fill-opacity="0.3"/><circle cx="320.3" cy="867.2" r="2.3" fill="#EDEAE4" fill-opacity="0.3"/><circle cx="341.1" cy="864.4" r="2.4" fill="#EDEAE4" fill-opacity="0.3"/><circle cx="361.7" cy="861.4" r="2.4" fill="#EDEAE4" fill-opacity="0.3"/><circle cx="382.3" cy="858.1" r="2.5" fill="#EDEAE4" fill-opacity="0.3"/><circle cx="402.7" cy="854.6" r="2.5" fill="#EDEAE4" fill-opacity="0.3"/><circle cx="423.0" cy="850.8" r="2.6" fill="#EDEAE4" fill-opacity="0.3"/><circle cx="443.2" cy="846.8" r="2.6" fill="#EDEAE4" fill-opacity="0.4"/><circle cx="463.3" cy="842.5" r="2.7" fill="#EDEAE4" fill-opacity="0.4"/><circle cx="483.3" cy="837.9" r="2.7" fill="#EDEAE4" fill-opacity="0.4"/><circle cx="503.2" cy="833.1" r="2.7" fill="#EDEAE4" fill-opacity="0.4"/><circle cx="522.9" cy="828.1" r="2.8" fill="#EDEAE4" fill-opacity="0.4"/><circle cx="542.6" cy="822.7" r="2.8" fill="#EDEAE4" fill-opacity="0.4"/><circle cx="562.1" cy="817.2" r="2.9" fill="#EDEAE4" fill-opacity="0.4"/><circle cx="581.5" cy="811.3" r="2.9" fill="#EDEAE4" fill-opacity="0.4"/><circle cx="600.8" cy="805.2" r="3.0" fill="#EDEAE4" fill-opacity="0.4"/><circle cx="620.0" cy="798.9" r="3.0" fill="#EDEAE4" fill-opacity="0.4"/><circle cx="639.1" cy="792.3" r="3.0" fill="#EDEAE4" fill-opacity="0.4"/><circle cx="658.0" cy="785.4" r="3.1" fill="#EDEAE4" fill-opacity="0.4"/><circle cx="676.9" cy="778.3" r="3.1" fill="#EDEAE4" fill-opacity="0.4"/><circle cx="695.6" cy="770.9" r="3.2" fill="#EDEAE4" fill-opacity="0.4"/><circle cx="714.2" cy="763.3" r="3.2" fill="#EDEAE4" fill-opacity="0.5"/><circle cx="732.7" cy="755.4" r="3.3" fill="#EDEAE4" fill-opacity="0.5"/><circle cx="751.1" cy="747.3" r="3.3" fill="#EDEAE4" fill-opacity="0.5"/><circle cx="769.4" cy="738.9" r="3.3" fill="#EDEAE4" fill-opacity="0.5"/><circle cx="787.6" cy="730.2" r="3.4" fill="#EDEAE4" fill-opacity="0.5"/><circle cx="805.6" cy="721.3" r="3.4" fill="#EDEAE4" fill-opacity="0.5"/><circle cx="823.6" cy="712.2" r="3.5" fill="#EDEAE4" fill-opacity="0.5"/><circle cx="841.4" cy="702.8" r="3.5" fill="#EDEAE4" fill-opacity="0.5"/><circle cx="859.1" cy="693.1" r="3.6" fill="#EDEAE4" fill-opacity="0.5"/><circle cx="876.7" cy="683.1" r="3.6" fill="#EDEAE4" fill-opacity="0.5"/><circle cx="894.2" cy="673.0" r="3.7" fill="#EDEAE4" fill-opacity="0.5"/><circle cx="911.6" cy="662.5" r="3.7" fill="#EDEAE4" fill-opacity="0.5"/><circle cx="928.8" cy="651.8" r="3.7" fill="#EDEAE4" fill-opacity="0.5"/><circle cx="946.0" cy="640.9" r="3.8" fill="#EDEAE4" fill-opacity="0.5"/><circle cx="963.0" cy="629.6" r="3.8" fill="#EDEAE4" fill-opacity="0.6"/><circle cx="979.9" cy="618.2" r="3.9" fill="#EDEAE4" fill-opacity="0.6"/><circle cx="996.7" cy="606.4" r="3.9" fill="#EDEAE4" fill-opacity="0.6"/><circle cx="1013.4" cy="594.5" r="4.0" fill="#EDEAE4" fill-opacity="0.6"/><circle cx="1030.0" cy="582.2" r="4.0" fill="#EDEAE4" fill-opacity="0.6"/><circle cx="1046.5" cy="569.7" r="4.0" fill="#EDEAE4" fill-opacity="0.6"/><circle cx="1062.8" cy="557.0" r="4.1" fill="#EDEAE4" fill-opacity="0.6"/><circle cx="1079.1" cy="544.0" r="4.1" fill="#EDEAE4" fill-opacity="0.6"/><circle cx="1095.2" cy="530.7" r="4.2" fill="#EDEAE4" fill-opacity="0.6"/><circle cx="1111.2" cy="517.2" r="4.2" fill="#EDEAE4" fill-opacity="0.6"/><circle cx="1127.1" cy="503.4" r="4.3" fill="#EDEAE4" fill-opacity="0.6"/><circle cx="1142.9" cy="489.4" r="4.3" fill="#EDEAE4" fill-opacity="0.6"/><circle cx="1158.5" cy="475.1" r="4.3" fill="#EDEAE4" fill-opacity="0.6"/><circle cx="1174.1" cy="460.5" r="4.4" fill="#EDEAE4" fill-opacity="0.6"/><circle cx="1189.5" cy="445.7" r="4.4" fill="#EDEAE4" fill-opacity="0.7"/><circle cx="1204.9" cy="430.7" r="4.5" fill="#EDEAE4" fill-opacity="0.7"/><circle cx="1220.1" cy="415.4" r="4.5" fill="#EDEAE4" fill-opacity="0.7"/><circle cx="1235.2" cy="399.8" r="4.6" fill="#EDEAE4" fill-opacity="0.7"/><circle cx="1250.2" cy="384.0" r="4.6" fill="#EDEAE4" fill-opacity="0.7"/><circle cx="1265.1" cy="367.9" r="4.7" fill="#EDEAE4" fill-opacity="0.7"/><circle cx="1279.8" cy="351.5" r="4.7" fill="#EDEAE4" fill-opacity="0.7"/><circle cx="1294.5" cy="335.0" r="4.7" fill="#EDEAE4" fill-opacity="0.7"/><circle cx="1309.0" cy="318.1" r="4.8" fill="#EDEAE4" fill-opacity="0.7"/><circle cx="1323.4" cy="301.0" r="4.8" fill="#EDEAE4" fill-opacity="0.7"/><circle cx="1337.8" cy="283.6" r="4.9" fill="#EDEAE4" fill-opacity="0.7"/><circle cx="1351.9" cy="266.0" r="4.9" fill="#EDEAE4" fill-opacity="0.7"/><circle cx="1366.0" cy="248.1" r="5.0" fill="#EDEAE4" fill-opacity="0.7"/><circle cx="1380.0" cy="230.0" r="5.0" fill="#EDEAE4" fill-opacity="0.8"/><circle cx="411.3" cy="853.0" r="16" fill="#191A1E" stroke="#D96A2C" stroke-width="4"/><circle cx="681.0" cy="776.7" r="16" fill="#191A1E" stroke="#D96A2C" stroke-width="4"/><circle cx="929.2" cy="651.6" r="16" fill="#191A1E" stroke="#D96A2C" stroke-width="4"/><circle cx="1134.0" cy="497.3" r="16" fill="#191A1E" stroke="#D96A2C" stroke-width="4"/><circle cx="1440.0" cy="230.0" r="3.8" fill="#D96A2C" fill-opacity="0.7"/><circle cx="1435.4" cy="253.0" r="3.8" fill="#D96A2C" fill-opacity="0.7"/><circle cx="1422.4" cy="272.4" r="3.8" fill="#D96A2C" fill-opacity="0.7"/><circle cx="1403.0" cy="285.4" r="3.8" fill="#D96A2C" fill-opacity="0.7"/><circle cx="1380.0" cy="290.0" r="3.8" fill="#D96A2C" fill-opacity="0.7"/><circle cx="1357.0" cy="285.4" r="3.8" fill="#D96A2C" fill-opacity="0.7"/><circle cx="1337.6" cy="272.4" r="3.8" fill="#D96A2C" fill-opacity="0.7"/><circle cx="1324.6" cy="253.0" r="3.8" fill="#D96A2C" fill-opacity="0.7"/><circle cx="1320.0" cy="230.0" r="3.8" fill="#D96A2C" fill-opacity="0.7"/><circle cx="1324.6" cy="207.0" r="3.8" fill="#D96A2C" fill-opacity="0.7"/><circle cx="1337.6" cy="187.6" r="3.8" fill="#D96A2C" fill-opacity="0.7"/><circle cx="1357.0" cy="174.6" r="3.8" fill="#D96A2C" fill-opacity="0.7"/><circle cx="1380.0" cy="170.0" r="3.8" fill="#D96A2C" fill-opacity="0.7"/><circle cx="1403.0" cy="174.6" r="3.8" fill="#D96A2C" fill-opacity="0.7"/><circle cx="1422.4" cy="187.6" r="3.8" fill="#D96A2C" fill-opacity="0.7"/><circle cx="1435.4" cy="207.0" r="3.8" fill="#D96A2C" fill-opacity="0.7"/><circle cx="1480.0" cy="230.0" r="3.0" fill="#D96A2C" fill-opacity="0.5"/><circle cx="1475.9" cy="258.2" r="3.0" fill="#D96A2C" fill-opacity="0.5"/><circle cx="1464.1" cy="284.1" r="3.0" fill="#D96A2C" fill-opacity="0.5"/><circle cx="1445.5" cy="305.6" r="3.0" fill="#D96A2C" fill-opacity="0.5"/><circle cx="1421.5" cy="321.0" r="3.0" fill="#D96A2C" fill-opacity="0.5"/><circle cx="1394.2" cy="329.0" r="3.0" fill="#D96A2C" fill-opacity="0.5"/><circle cx="1365.8" cy="329.0" r="3.0" fill="#D96A2C" fill-opacity="0.5"/><circle cx="1338.5" cy="321.0" r="3.0" fill="#D96A2C" fill-opacity="0.5"/><circle cx="1314.5" cy="305.6" r="3.0" fill="#D96A2C" fill-opacity="0.5"/><circle cx="1295.9" cy="284.1" r="3.0" fill="#D96A2C" fill-opacity="0.5"/><circle cx="1284.1" cy="258.2" r="3.0" fill="#D96A2C" fill-opacity="0.5"/><circle cx="1280.0" cy="230.0" r="3.0" fill="#D96A2C" fill-opacity="0.5"/><circle cx="1284.1" cy="201.8" r="3.0" fill="#D96A2C" fill-opacity="0.5"/><circle cx="1295.9" cy="175.9" r="3.0" fill="#D96A2C" fill-opacity="0.5"/><circle cx="1314.5" cy="154.4" r="3.0" fill="#D96A2C" fill-opacity="0.5"/><circle cx="1338.5" cy="139.0" r="3.0" fill="#D96A2C" fill-opacity="0.5"/><circle cx="1365.8" cy="131.0" r="3.0" fill="#D96A2C" fill-opacity="0.5"/><circle cx="1394.2" cy="131.0" r="3.0" fill="#D96A2C" fill-opacity="0.5"/><circle cx="1421.5" cy="139.0" r="3.0" fill="#D96A2C" fill-opacity="0.5"/><circle cx="1445.5" cy="154.4" r="3.0" fill="#D96A2C" fill-opacity="0.5"/><circle cx="1464.1" cy="175.9" r="3.0" fill="#D96A2C" fill-opacity="0.5"/><circle cx="1475.9" cy="201.8" r="3.0" fill="#D96A2C" fill-opacity="0.5"/><circle cx="1525.0" cy="230.0" r="2.1" fill="#D96A2C" fill-opacity="0.2"/><circle cx="1521.8" cy="260.1" r="2.1" fill="#D96A2C" fill-opacity="0.2"/><circle cx="1512.5" cy="289.0" r="2.1" fill="#D96A2C" fill-opacity="0.2"/><circle cx="1497.3" cy="315.2" r="2.1" fill="#D96A2C" fill-opacity="0.2"/><circle cx="1477.0" cy="337.8" r="2.1" fill="#D96A2C" fill-opacity="0.2"/><circle cx="1452.5" cy="355.6" r="2.1" fill="#D96A2C" fill-opacity="0.2"/><circle cx="1424.8" cy="367.9" r="2.1" fill="#D96A2C" fill-opacity="0.2"/><circle cx="1395.2" cy="374.2" r="2.1" fill="#D96A2C" fill-opacity="0.2"/><circle cx="1364.8" cy="374.2" r="2.1" fill="#D96A2C" fill-opacity="0.2"/><circle cx="1335.2" cy="367.9" r="2.1" fill="#D96A2C" fill-opacity="0.2"/><circle cx="1307.5" cy="355.6" r="2.1" fill="#D96A2C" fill-opacity="0.2"/><circle cx="1283.0" cy="337.8" r="2.1" fill="#D96A2C" fill-opacity="0.2"/><circle cx="1262.7" cy="315.2" r="2.1" fill="#D96A2C" fill-opacity="0.2"/><circle cx="1247.5" cy="289.0" r="2.1" fill="#D96A2C" fill-opacity="0.2"/><circle cx="1238.2" cy="260.1" r="2.1" fill="#D96A2C" fill-opacity="0.2"/><circle cx="1235.0" cy="230.0" r="2.1" fill="#D96A2C" fill-opacity="0.2"/><circle cx="1238.2" cy="199.9" r="2.1" fill="#D96A2C" fill-opacity="0.2"/><circle cx="1247.5" cy="171.0" r="2.1" fill="#D96A2C" fill-opacity="0.2"/><circle cx="1262.7" cy="144.8" r="2.1" fill="#D96A2C" fill-opacity="0.2"/><circle cx="1283.0" cy="122.2" r="2.1" fill="#D96A2C" fill-opacity="0.2"/><circle cx="1307.5" cy="104.4" r="2.1" fill="#D96A2C" fill-opacity="0.2"/><circle cx="1335.2" cy="92.1" r="2.1" fill="#D96A2C" fill-opacity="0.2"/><circle cx="1364.8" cy="85.8" r="2.1" fill="#D96A2C" fill-opacity="0.2"/><circle cx="1395.2" cy="85.8" r="2.1" fill="#D96A2C" fill-opacity="0.2"/><circle cx="1424.8" cy="92.1" r="2.1" fill="#D96A2C" fill-opacity="0.2"/><circle cx="1452.5" cy="104.4" r="2.1" fill="#D96A2C" fill-opacity="0.2"/><circle cx="1477.0" cy="122.2" r="2.1" fill="#D96A2C" fill-opacity="0.2"/><circle cx="1497.3" cy="144.8" r="2.1" fill="#D96A2C" fill-opacity="0.2"/><circle cx="1512.5" cy="171.0" r="2.1" fill="#D96A2C" fill-opacity="0.2"/><circle cx="1521.8" cy="199.9" r="2.1" fill="#D96A2C" fill-opacity="0.2"/><circle cx="1380" cy="230" r="30" fill="#D96A2C"/></svg>